<svg xmlns="http://www.w3.org/2000/svg" viewBox="0 0 128 128">
  <defs><clipPath id="c"><circle cx="64" cy="64" r="56"></circle></clipPath></defs>
  <circle cx="64" cy="64" r="56" fill="#FFF2E9"></circle>
  <g clip-path="url(#c)">
    <rect x="0" y="86" width="128" height="60" fill="#FFE0CF"></rect>
    <path d="M42 30c-8-10-2-20 6-24 8 8 10 18 6 26" fill="#FFB4D1"></path>
    <path d="M86 30c8-10 2-20-6-24-8 8-10 18-6 26" fill="#FFB4D1"></path>
    <circle cx="64" cy="62" r="26" fill="#FFD7C2"></circle>
    <path d="M34 90c6-24 54-24 60 0v14H34V90z" fill="#FF6AA2"></path>
    <path d="M44 56c6-10 34-10 40 0v10H44V56z" fill="#FF8DB7"></path>
    <circle cx="54" cy="64" r="4" fill="#1F2937"></circle>
    <circle cx="74" cy="64" r="4" fill="#1F2937"></circle>
    <path d="M60 74c2 2 6 2 8 0" stroke="#1F2937" stroke-width="4" stroke-linecap="round" fill="none"></path>
  </g>
</svg>
